<svg xmlns="http://www.w3.org/2000/svg" width="150" viewBox="0 0 241 58">  
<defs>
<style>
@import url("https://fonts.googleapis.com/css?family=Nunito:400,400i,700,700i");
</style>
</defs>  
<g aria-label="scratchbox" font-size="1.5em" color="#ffffff" fill="#ffffff" font-family="Nunito" font-weight="400" letter-spacing="0" style="line-height:1.25" word-spacing="0">
<path fill="#4c97ff" stroke="#3373cc" d="M0.5 4.5a4 4 0 0 1 4-4h8c2 0 3 1 4 2l4 4c1 1 2 2 4 2h12c2 0 3-1 4-2l4-4c1-1 2-2 4-2h188a4 4 0 0 1 4 4v40a4 4 0 0 1-4 4h-188c-2 0-3 1-4 2l-4 4c-1 1-2 2-4 2h-12c-2 0-3-1-4-2l-4-4c-1-1-2-2-4-2h-8a4 4 0 0 1-4-4z"></path>
<text x="0.8em" y="1.6em">ouvrir la fiche</text>
</g>
</svg>
